<svg width="78" height="78" viewBox="0 0 78 78" fill="none" xmlns="http://www.w3.org/2000/svg">
<path d="M5.90359 38.4665L35.3364 9.04892L37.3093 7.07607C37.7588 6.62953 38.3667 6.37891 39.0003 6.37891C39.6339 6.37891 40.2418 6.62953 40.6913 7.07607L72.0969 38.4665C72.5576 38.9253 72.9216 39.4717 73.1675 40.0735C73.4135 40.6753 73.5364 41.3203 73.529 41.9704C73.4985 44.6517 71.2667 46.7921 68.5854 46.7921H65.3481V71.6013H12.6524V46.7921H9.34656C8.04402 46.7921 6.81766 46.2817 5.89598 45.3601C5.44214 44.9077 5.08256 44.3698 4.83806 43.7775C4.59355 43.1852 4.46899 42.5502 4.47156 41.9095C4.47156 40.6145 4.98191 39.3882 5.90359 38.4665V38.4665ZM34.7346 66.1169H43.2659V50.5778H34.7346V66.1169ZM18.1368 41.3077V66.1169H29.8596V48.7497C29.8596 47.0663 31.2231 45.7028 32.9065 45.7028H45.094C46.7774 45.7028 48.1409 47.0663 48.1409 48.7497V66.1169H59.8637V41.3077H67.1762L38.9927 13.147L37.2331 14.9065L10.8167 41.3077H18.1368Z" fill="black"/>
</svg>
