<svg width="1440" height="1326" viewBox="0 0 1440 1326" fill="none" xmlns="http://www.w3.org/2000/svg">
<g filter="url(#filter0_i_1_5)">
<path d="M164.499 1156C-58.5007 1048 -114.924 972.235 -72.5009 674.001C-57.6329 569.479 192.407 495.662 79.0668 343.73C45.3955 298.594 44.5949 232.092 94.7132 206.417C471.511 13.3923 1163.73 -106.393 1406.39 137.318C1508.44 239.816 1572.62 360.115 1577.9 487.965C1587.01 708.451 1424.2 908.168 1395.73 1127C1391.95 1156.01 1379.9 1179.64 1359.72 1200.82C1242.64 1323.72 1244.71 1345.1 805.501 1310C356.501 1326 297.655 1227.78 164.499 1156Z" fill="#FF0099"/>
</g>
<defs>
<filter id="filter0_i_1_5" x="-85.5518" y="0.765625" width="1667.82" height="1328.45" filterUnits="userSpaceOnUse" color-interpolation-filters="sRGB">
<feFlood flood-opacity="0" result="BackgroundImageFix"/>
<feBlend mode="normal" in="SourceGraphic" in2="BackgroundImageFix" result="shape"/>
<feColorMatrix in="SourceAlpha" type="matrix" values="0 0 0 0 0 0 0 0 0 0 0 0 0 0 0 0 0 0 127 0" result="hardAlpha"/>
<feOffset dx="10" dy="4"/>
<feGaussianBlur stdDeviation="2"/>
<feComposite in2="hardAlpha" operator="arithmetic" k2="-1" k3="1"/>
<feColorMatrix type="matrix" values="0 0 0 0 0 0 0 0 0 0 0 0 0 0 0 0 0 0 0.25 0"/>
<feBlend mode="normal" in2="shape" result="effect1_innerShadow_1_5"/>
</filter>
</defs>
</svg>
