<svg width="78" height="78" viewBox="0 0 78 78" fill="none" xmlns="http://www.w3.org/2000/svg">
<path d="M5.9031 38.4667L35.3359 9.04917L37.3088 7.07631C37.7583 6.62977 38.3662 6.37915 38.9998 6.37915C39.6334 6.37915 40.2413 6.62977 40.6908 7.07631L72.0965 38.4667C72.5571 38.9256 72.9211 39.472 73.167 40.0738C73.413 40.6756 73.5359 41.3206 73.5285 41.9706C73.498 44.6519 71.2662 46.7923 68.5849 46.7923H65.3476V71.6015H12.6519V46.7923H9.34607C8.04353 46.7923 6.81717 46.282 5.89548 45.3603C5.44166 44.9079 5.08208 44.37 4.83757 43.7777C4.59306 43.1854 4.4685 42.5505 4.47107 41.9097C4.47107 40.6148 4.98142 39.3884 5.9031 38.4667ZM34.7342 66.1171H43.2654V50.5781H34.7342V66.1171ZM18.1363 41.308V66.1171H29.8592V48.7499C29.8592 47.0665 31.2226 45.7031 32.906 45.7031H45.0935C46.7769 45.7031 48.1404 47.0665 48.1404 48.7499V66.1171H59.8633V41.308H67.1758L38.9922 13.1472L37.2326 14.9068L10.8162 41.308H18.1363Z" fill="#545454"/>
</svg>
